<svg width="13" height="7" viewBox="0 0 13 7" fill="none" xmlns="http://www.w3.org/2000/svg">
<path d="M12.1895 0.311272C12.0203 0.141979 11.7909 0.046875 11.5517 0.046875C11.3124 0.046875 11.083 0.141979 10.9138 0.311272L6.44817 4.78129L1.9825 0.311272C1.81236 0.146776 1.58447 0.0557552 1.34793 0.0578127C1.11139 0.0598702 0.885114 0.154842 0.717847 0.322272C0.55058 0.489702 0.455703 0.716194 0.453648 0.952967C0.451591 1.18974 0.542523 1.41785 0.706859 1.58816L5.81034 6.69663C5.97952 6.86592 6.20895 6.96103 6.44817 6.96103C6.68739 6.96103 6.91681 6.86592 7.08599 6.69663L12.1895 1.58816C12.3586 1.41882 12.4536 1.18917 12.4536 0.949717C12.4536 0.710265 12.3586 0.480616 12.1895 0.311272Z" fill="#BCBBBD"/>
</svg>
