<svg width="6" height="12" viewBox="0 0 6 12" fill="none" xmlns="http://www.w3.org/2000/svg">
<path d="M0.229439 0.264138C0.0825295 0.433317 0 0.662742 0 0.901961C0 1.14118 0.0825295 1.37061 0.229439 1.53978L4.10846 6.00545L0.229439 10.4711C0.086693 10.6413 0.0077061 10.8691 0.00949156 11.1057C0.011277 11.3422 0.0936919 11.5685 0.238985 11.7358C0.384278 11.903 0.580825 11.9979 0.786293 12C0.991761 12.002 1.18971 11.9111 1.33751 11.7468L5.77056 6.64327C5.91747 6.47409 6 6.24467 6 6.00545C6 5.76623 5.91747 5.5368 5.77056 5.36762L1.33751 0.264138C1.19055 0.0950107 0.991266 0 0.783473 0C0.57568 0 0.376394 0.0950107 0.229439 0.264138Z" fill="#356646"/>
</svg>
